# xmcd
#
# Track frame offsets:
#	150
#	24039
#	50590
#	70429
#	95795
#	123639
#	140060
#	160594
#
# Disc length: 2553 seconds
# Revision: 0
# Processed by: cddbd v1.5.2PL0 Copyright (c) Steve Scherf et al.
# Submitted via: dBpowerAMP V12.0
#
DISCID=6f09f708
DTITLE=Chris Russell's Chicken Walk - Shakedown
DYEAR=2013
DGENRE=Blues
TTITLE0=(Somebody Call The) Po'Po'
TTITLE1=Pretty Little Girl
TTITLE2=Someday My Sun Gonna Shine
TTITLE3=Mississippi River
TTITLE4=Catfish Blues
TTITLE5=Down In Tennessee
TTITLE6=Long Haired Doney
TTITLE7=Bad Motherfucker
EXTD=
EXTT0=
EXTT1=
EXTT2=
EXTT3=
EXTT4=
EXTT5=
EXTT6=
EXTT7=
PLAYORDER=
